<svg width="121" height="29" viewBox="0 0 121 29" fill="none" xmlns="http://www.w3.org/2000/svg">
<path d="M33.2367 28.3425C31.5581 28.3584 29.9101 27.8926 28.488 27.0005C27.0615 26.1098 25.8847 24.8713 25.0681 23.4011C24.218 21.8968 23.7926 20.2309 23.7921 18.4036C23.7715 15.7824 24.7632 13.2545 26.5604 11.3464C27.4141 10.4402 28.4382 9.71135 29.5741 9.20159C30.9183 8.60799 32.3866 8.34949 33.8527 8.44828C35.3189 8.54708 36.7392 9.00021 37.9916 9.76879C39.4194 10.6605 40.5965 11.9014 41.4116 13.3743C42.2617 14.8857 42.6867 16.5609 42.6867 18.4C42.6969 19.7208 42.4465 21.0306 41.9498 22.2544C41.4752 23.4265 40.7866 24.5001 39.9192 25.4202C39.0682 26.3261 38.0472 27.0555 36.9144 27.5668C35.7586 28.0871 34.5042 28.3517 33.2367 28.3425ZM33.2367 23.7318C34.1176 23.7435 34.9812 23.4865 35.7122 22.9949C36.4443 22.5028 37.0395 21.8328 37.442 21.0479C37.8615 20.2201 38.0785 19.3046 38.0752 18.3766C38.0718 17.4486 37.8482 16.5347 37.4227 15.71C37.0106 14.9228 36.4055 14.2532 35.6639 13.7639C34.938 13.2878 34.0884 13.0349 33.2203 13.0366C32.3522 13.0384 31.5037 13.2946 30.7797 13.7736C30.0435 14.2711 29.4456 14.9474 29.042 15.739C28.6124 16.5616 28.3919 17.4773 28.4001 18.4053C28.3867 19.3477 28.6144 20.2779 29.0614 21.1077C29.4775 21.8867 30.0856 22.5465 30.8281 23.0248C31.5447 23.4906 32.3821 23.7361 33.2367 23.7309V23.7318Z" fill="#282727"/>
<path d="M49.2153 28.3432V17.6146C49.2074 16.9012 49.3934 16.1991 49.7535 15.5832C50.1045 14.9805 50.606 14.4793 51.2089 14.1287C51.8244 13.7678 52.5267 13.5814 53.2403 13.5896C53.7186 13.5896 55.5267 13.7919 56.494 15.5445V9.44769C55.8529 9.10962 55.1407 8.92877 54.416 8.92005C53.4448 8.9142 52.4827 9.10734 51.589 9.48757C50.6953 9.86779 49.8889 10.427 49.2197 11.1308L49.2012 9.44945H40.1558C40.4644 9.46176 42.3138 9.56816 43.5854 11.1133C44.1532 11.8129 44.503 12.6639 44.5914 13.5606L44.602 24.1133C44.533 25.0521 44.1783 25.9473 43.5854 26.6785C42.3147 28.2227 40.4653 28.3291 40.1558 28.3423" fill="#282727"/>
<path d="M63.2968 9.44727H58.6817V24.0962C58.617 25.0404 58.2633 25.9418 57.6686 26.6781C56.3979 28.2223 54.5486 28.3287 54.239 28.3419H63.2968V13.5496" fill="#282727"/>
<path d="M92.3172 28.3425C90.6385 28.3583 88.9905 27.8926 87.5684 27.0006C86.1422 26.1098 84.9657 24.8712 84.1494 23.4012C83.2993 21.8968 82.8739 20.231 82.8734 18.4036C82.8528 15.7825 83.8445 13.2545 85.6417 11.3465C86.495 10.4401 87.5193 9.71143 88.6554 9.20251C89.9995 8.60841 91.4677 8.34956 92.934 8.44821C94.4002 8.54686 95.8205 9.00005 97.0729 9.76884C98.5005 10.6609 99.6775 11.9017 100.493 13.3744C101.343 14.8857 101.768 16.561 101.768 18.4001C101.778 19.7208 101.528 21.0306 101.031 22.2545C100.556 23.4266 99.8673 24.5002 98.9997 25.4203C98.1488 26.3254 97.1281 27.0542 95.9957 27.5651C94.8398 28.0861 93.585 28.3513 92.3172 28.3425ZM92.3172 23.7318C93.1981 23.7436 94.0616 23.4865 94.7927 22.9949C95.5241 22.5027 96.1189 21.8332 96.5215 21.0488C96.9411 20.2211 97.1581 19.3055 97.1547 18.3775C97.1513 17.4495 96.9277 16.5356 96.5022 15.7109C96.0902 14.9237 95.485 14.2541 94.7434 13.7648C94.0175 13.2887 93.168 13.0358 92.2999 13.0376C91.4318 13.0393 90.5833 13.2955 89.8593 13.7745C89.123 14.2722 88.5249 14.9484 88.1207 15.7399C87.6921 16.5625 87.4723 17.4779 87.4805 18.4054C87.4671 19.3478 87.6948 20.278 88.1418 21.1077C88.5579 21.8867 89.166 22.5466 89.9085 23.0248C90.6251 23.4906 91.4625 23.7362 92.3172 23.731V23.7318Z" fill="#282727"/>
<path d="M61.0629 7.48201C60.5535 7.48701 60.0533 7.34602 59.6215 7.07573C59.1812 6.79889 58.8191 6.41392 58.5698 5.9575C58.3204 5.50108 58.192 4.98841 58.1969 4.46833C58.1901 3.67346 58.491 2.90675 59.0367 2.32877C59.2953 2.05366 59.6059 1.83249 59.9504 1.67802C60.358 1.49882 60.803 1.4212 61.2472 1.45183C61.6914 1.48247 62.1215 1.62044 62.5007 1.8539C62.9337 2.1244 63.2906 2.50093 63.5375 2.94786C63.7602 3.35734 63.8903 3.81074 63.9186 4.27603C63.9468 4.74132 63.8726 5.20713 63.701 5.64057C63.557 5.996 63.3483 6.32161 63.0855 6.60086C62.8274 6.87526 62.5179 7.0961 62.1744 7.25073C61.8248 7.40668 61.4457 7.48556 61.0629 7.48201Z" fill="#282727"/>
<path d="M102.676 11.1065C103.272 11.8424 103.627 12.7438 103.693 13.6884V9.44531H99.2471C99.5557 9.4585 101.405 9.56491 102.676 11.1065Z" fill="#282727"/>
<path d="M119.991 12.6302C119.329 11.5154 118.396 10.5861 117.279 9.92866C116.142 9.25382 114.841 8.90401 113.519 8.91736C112.548 8.91139 111.586 9.10447 110.692 9.4847C109.798 9.86493 108.991 10.4242 108.322 11.1282L108.303 9.44676H103.693L103.708 24.1986C103.624 25.1059 103.273 25.9681 102.699 26.6758C101.428 28.22 99.5791 28.3264 99.2695 28.3396H103.71H108.322V17.6137C108.314 16.9003 108.5 16.1982 108.86 15.5823C109.211 14.9796 109.713 14.4784 110.316 14.1278C110.934 13.7745 111.634 13.5887 112.347 13.5887C113.059 13.5887 113.759 13.7745 114.377 14.1278C114.982 14.4796 115.486 14.9803 115.842 15.5823C116.208 16.196 116.398 16.899 116.39 17.6137V24.1625C116.313 25.0845 115.961 25.962 115.377 26.6802C114.107 28.2244 112.257 28.3308 111.948 28.344H116.389H120.999V16.4001C121.016 15.0746 120.667 13.7702 119.991 12.6302Z" fill="#282727"/>
<path d="M81.5571 14.057V9.44727H65.8933V14.0553V18.301C65.9598 17.3564 66.315 16.4551 66.9108 15.7191C68.1367 14.2294 69.9007 14.0773 70.3008 14.057H75.4893L65.4185 23.7304V28.3428H81.5544V23.7312H71.4863L81.5571 14.057Z" fill="#282727"/>
<path d="M80.5412 22.0664C79.2696 23.6115 77.4211 23.7179 77.1116 23.7302H81.5578V19.4854C81.4919 20.4296 81.1369 21.3308 80.5412 22.0664Z" fill="#282727"/>
<path d="M3.42875 1.66381C4.02554 2.3999 4.38084 3.30211 4.44621 4.24747V0H0C0.308667 0.0123115 2.15803 0.118717 3.42875 1.66381Z" fill="#282727"/>
<path d="M20.7433 12.6307C20.0818 11.516 19.1491 10.5867 18.0321 9.92922C16.8948 9.25447 15.5941 8.90468 14.2718 8.91792C13.3006 8.91233 12.3386 9.10559 11.4449 9.4858C10.5513 9.86601 9.74491 10.4251 9.07547 11.1287L9.057 0H4.44634L4.46569 24.0778C4.39383 25.0111 4.0399 25.9005 3.45087 26.628C2.18015 28.1722 0.330787 28.2786 0.0212402 28.2918H4.46569H9.07547V17.6142C9.06745 16.9007 9.2538 16.1985 9.61454 15.5828C9.96498 14.98 10.4662 14.4788 11.0691 14.1283C11.6878 13.7751 12.388 13.5893 13.1005 13.5893C13.8129 13.5893 14.5131 13.7751 15.1318 14.1283C15.7358 14.4806 16.2397 14.9813 16.596 15.5828C16.9619 16.1968 17.1515 16.8996 17.1439 17.6142V28.3428H21.7537V16.4007C21.7698 15.075 21.4202 13.7706 20.7433 12.6307Z" fill="#282727"/>
<path d="M12.6973 28.3423H17.1435V24.0957C17.077 25.0403 16.7218 25.9416 16.126 26.6776C14.8553 28.2218 13.0059 28.3282 12.6973 28.3423Z" fill="#282727"/>
</svg>
